<svg width="117" height="133" viewBox="0 0 117 133" fill="none" xmlns="http://www.w3.org/2000/svg">
<path d="M95.5 1.5C106.55 1.5 115.5 10.45 115.5 21.5V111.5C115.5 122.55 106.55 131.5 95.5 131.5H21.5C10.45 131.5 1.5 122.55 1.5 111.5V21.5C1.5 10.45 10.45 1.5 21.5 1.5H95.5ZM95.5 0H21.5C9.64 0 0 9.64 0 21.5V111.5C0 123.36 9.64 133 21.5 133H95.5C107.36 133 117 123.36 117 111.5V21.5C117 9.64 107.36 0 95.5 0Z" fill="white"/>
<path d="M63.2902 24.5H60.4102V37.15H66.7102V34.4H63.2902V24.5Z" fill="white"/>
<path d="M55.5199 29.1C55.5199 29.63 55.2099 30.2 54.5199 30.2C53.9899 30.2 53.5499 29.76 53.5499 29.1V19.73H50.6699V29C50.6699 31.35 52.4199 32.51 54.5899 32.51C56.7599 32.51 58.4399 31.29 58.4399 29V19.73H55.5299V29.1H55.5199Z" fill="white"/>
<path d="M58.5 11.44C43.87 11.44 32 23.31 32 37.94C32 50.39 40.6 60.83 52.17 63.67V52.47C52.17 48.81 55.11 45.36 58.56 44.76L64.73 43.66V49.8C64.73 53.21 61.94 56.5 58.5 57.1L55.65 57.6C55.62 56.28 55.84 49.71 62.79 45.63C55.24 48.1 54.14 54.68 54.14 57.97V64.06C55.56 64.29 57.01 64.42 58.49 64.42C73.12 64.42 84.99 52.55 84.99 37.92C84.99 23.29 73.12 11.42 58.49 11.42L58.5 11.44ZM79.03 44.99C72.91 41.7 65.91 39.82 58.47 39.82C51.03 39.82 44.02 41.7 37.9 44.99C37.14 42.78 36.73 40.41 36.73 37.94C36.73 25.94 46.44 16.2 58.47 16.2C70.5 16.2 80.24 25.91 80.21 37.94C80.21 40.41 79.79 42.77 79.03 44.99V44.99Z" fill="white"/>
<path d="M27.7099 75.37L26.0799 76.92C24.9699 75.75 23.7299 75.17 22.3499 75.17C21.1799 75.17 20.1999 75.57 19.3999 76.37C18.5999 77.17 18.1999 78.15 18.1999 79.32C18.1999 80.13 18.3799 80.86 18.7299 81.49C19.0799 82.12 19.5799 82.62 20.2299 82.98C20.8799 83.34 21.5999 83.52 22.3899 83.52C23.0599 83.52 23.6799 83.39 24.2399 83.14C24.7999 82.89 25.4099 82.43 26.0799 81.76L27.6599 83.4C26.7599 84.28 25.9099 84.89 25.0999 85.23C24.2999 85.57 23.3799 85.74 22.3499 85.74C20.4499 85.74 18.8999 85.14 17.6899 83.93C16.4799 82.73 15.8799 81.18 15.8799 79.3C15.8799 78.08 16.1599 77 16.7099 76.05C17.2599 75.1 18.0499 74.34 19.0799 73.77C20.1099 73.19 21.2099 72.91 22.3999 72.91C23.4099 72.91 24.3799 73.12 25.3099 73.55C26.2399 73.97 27.0499 74.58 27.7199 75.36L27.7099 75.37Z" fill="white"/>
<path d="M30.6099 73.22H37.2799V75.49H32.9199V77.7H37.2799V79.93H32.9199V83.14H37.2799V85.42H30.6099V73.21V73.22Z" fill="white"/>
<path d="M40.8899 73.22H43.3499C44.6999 73.22 45.6599 73.34 46.2299 73.58C46.7999 73.82 47.2599 74.22 47.6099 74.78C47.9599 75.34 48.1299 76 48.1299 76.76C48.1299 77.56 47.9399 78.23 47.5499 78.77C47.1699 79.31 46.5899 79.72 45.8099 79.99L48.6999 85.42H46.1599L43.4099 80.25H43.1999V85.42H40.8799V73.21L40.8899 73.22ZM43.2099 77.99H43.9399C44.6799 77.99 45.1899 77.89 45.4699 77.7C45.7499 77.51 45.8899 77.18 45.8899 76.73C45.8899 76.46 45.8199 76.23 45.6799 76.03C45.5399 75.83 45.3599 75.69 45.1299 75.61C44.8999 75.52 44.4699 75.48 43.8599 75.48H43.2199V77.99H43.2099Z" fill="white"/>
<path d="M50.4897 73.22H57.2397V75.51H55.0197V85.43H52.6597V75.51H50.4897V73.22Z" fill="white"/>
<path d="M59.7397 73.22H62.0497V85.43H59.7397V73.22Z" fill="white"/>
<path d="M65.8799 73.22H71.9399V75.49H68.1899V77.71H71.9399V79.94H68.1899V85.44H65.8799V73.23V73.22Z" fill="white"/>
<path d="M75.1099 73.22H77.4199V85.43H75.1099V73.22Z" fill="white"/>
<path d="M81.2397 73.22H87.9098V75.49H83.5498V77.7H87.9098V79.93H83.5498V83.14H87.9098V85.42H81.2397V73.21V73.22Z" fill="white"/>
<path d="M91.4399 73.22H94.1899C95.9599 73.22 97.2799 73.44 98.1499 73.88C99.0099 74.32 99.7199 75.04 100.28 76.03C100.84 77.02 101.12 78.18 101.12 79.5C101.12 80.44 100.96 81.3 100.65 82.09C100.34 82.88 99.9099 83.53 99.3599 84.05C98.8099 84.57 98.2099 84.93 97.5699 85.13C96.9299 85.33 95.8199 85.43 94.2399 85.43H91.4499V73.22H91.4399ZM93.7499 75.46V83.16H94.8299C95.8899 83.16 96.6599 83.04 97.1399 82.79C97.6199 82.55 98.0099 82.14 98.3099 81.56C98.6099 80.98 98.7699 80.27 98.7699 79.43C98.7699 78.13 98.4099 77.13 97.6799 76.41C97.0299 75.77 95.9799 75.45 94.5299 75.45H93.7399L93.7499 75.46Z" fill="white"/>
<path d="M22.5698 97.44H26.0998V98.64H23.7898V99.81H26.0998V100.99H23.7898V102.69H26.0998V103.9H22.5698V97.44V97.44Z" fill="white"/>
<path d="M27.3696 97.44H28.5496L31.3196 101.69V97.44H32.5496V103.9H31.3696L28.6096 99.66V103.9H27.3796V97.44H27.3696Z" fill="white"/>
<path d="M33.4097 97.44H34.6797L36.3097 102.03L37.9597 97.44H39.2197L36.8897 103.9H35.6997L33.4097 97.44V97.44Z" fill="white"/>
<path d="M40.0298 97.44H41.2498V103.9H40.0298V97.44Z" fill="white"/>
<path d="M42.7197 97.44H44.0197C44.7297 97.44 45.2397 97.5 45.5497 97.63C45.8497 97.76 46.0997 97.97 46.2797 98.26C46.4597 98.56 46.5597 98.91 46.5597 99.31C46.5597 99.73 46.4597 100.09 46.2497 100.38C46.0497 100.67 45.7397 100.88 45.3297 101.03L46.8597 103.9H45.5097L44.0597 101.16H43.9497V103.9H42.7197V97.44V97.44ZM43.9497 99.97H44.3397C44.7297 99.97 44.9997 99.92 45.1497 99.82C45.2997 99.72 45.3697 99.55 45.3697 99.31C45.3697 99.17 45.3297 99.05 45.2597 98.94C45.1897 98.84 45.0897 98.76 44.9697 98.72C44.8497 98.67 44.6197 98.65 44.2997 98.65H43.9597V99.98L43.9497 99.97Z" fill="white"/>
<path d="M50.7599 97.28C51.6799 97.28 52.4599 97.61 53.1199 98.27C53.7799 98.93 54.1099 99.74 54.1099 100.69C54.1099 101.64 53.7899 102.43 53.1399 103.09C52.4899 103.75 51.6999 104.07 50.7799 104.07C49.8599 104.07 48.9999 103.74 48.3599 103.06C47.7199 102.38 47.3999 101.59 47.3999 100.67C47.3999 100.05 47.5499 99.48 47.8499 98.96C48.1499 98.44 48.5599 98.03 49.0799 97.73C49.5999 97.43 50.1699 97.27 50.7699 97.27L50.7599 97.28ZM50.7499 98.48C50.1499 98.48 49.6499 98.69 49.2399 99.1C48.8299 99.51 48.6299 100.04 48.6299 100.69C48.6299 101.4 48.8899 101.97 49.3999 102.39C49.7999 102.72 50.2599 102.88 50.7699 102.88C51.3499 102.88 51.8499 102.67 52.2599 102.25C52.6699 101.83 52.8799 101.31 52.8799 100.69C52.8799 100.07 52.6699 99.55 52.2599 99.13C51.8499 98.7 51.3399 98.49 50.7499 98.49V98.48Z" fill="white"/>
<path d="M55.25 97.44H56.43L59.2 101.69V97.44H60.43V103.9H59.25L56.49 99.66V103.9H55.26V97.44H55.25Z" fill="white"/>
<path d="M62.5499 97.44H63.7499L65.2499 101.95L66.7599 97.44H67.9599L69.0399 103.9H67.8499L67.1599 99.82L65.7899 103.9H64.7099L63.3499 99.82L62.6399 103.9H61.4399L62.5599 97.44H62.5499Z" fill="white"/>
<path d="M70.0498 97.44H73.5798V98.64H71.2698V99.81H73.5798V100.99H71.2698V102.69H73.5798V103.9H70.0498V97.44V97.44Z" fill="white"/>
<path d="M74.8599 97.44H76.0399L78.8099 101.69V97.44H80.0399V103.9H78.8599L76.0999 99.66V103.9H74.8699V97.44H74.8599Z" fill="white"/>
<path d="M80.8201 97.44H84.3901V98.65H83.2101V103.9H81.9601V98.65H80.8101V97.44H80.8201Z" fill="white"/>
<path d="M86.8398 97.44H88.0898L90.5798 103.9H89.2999L88.7898 102.57H86.1498L85.6199 103.9H84.3398L86.8298 97.44H86.8398ZM87.4698 99.15L86.5998 101.37H88.3298L87.4698 99.15Z" fill="white"/>
<path d="M91.4097 97.44H92.6397V102.73H94.4297V103.9H91.4097V97.44V97.44Z" fill="white"/>
<path d="M9.27002 108.44H10.58C11.29 108.44 11.79 108.51 12.11 108.64C12.42 108.77 12.67 108.98 12.85 109.27C13.03 109.56 13.12 109.91 13.12 110.32C13.12 110.77 13 111.15 12.77 111.44C12.54 111.73 12.21 111.95 11.81 112.06C11.57 112.13 11.14 112.16 10.51 112.16V114.9H9.28002V108.44H9.27002ZM10.5 110.97H10.89C11.2 110.97 11.41 110.95 11.53 110.9C11.65 110.85 11.74 110.78 11.81 110.68C11.88 110.58 11.91 110.46 11.91 110.31C11.91 110.06 11.81 109.88 11.62 109.76C11.48 109.67 11.22 109.63 10.84 109.63H10.49V110.96L10.5 110.97Z" fill="white"/>
<path d="M13.9502 108.44H15.2502C15.9602 108.44 16.4702 108.5 16.7802 108.63C17.0802 108.76 17.3302 108.97 17.5102 109.26C17.6902 109.56 17.7902 109.91 17.7902 110.31C17.7902 110.73 17.6902 111.09 17.4802 111.38C17.2802 111.67 16.9702 111.88 16.5602 112.03L18.0902 114.9H16.7402L15.2902 112.16H15.1802V114.9H13.9502V108.44V108.44ZM15.1802 110.97H15.5702C15.9602 110.97 16.2302 110.92 16.3802 110.82C16.5302 110.72 16.6002 110.55 16.6002 110.31C16.6002 110.17 16.5602 110.05 16.4902 109.94C16.4202 109.84 16.3202 109.76 16.2002 109.72C16.0802 109.67 15.8502 109.65 15.5302 109.65H15.1902V110.98L15.1802 110.97Z" fill="white"/>
<path d="M21.82 108.28C22.74 108.28 23.52 108.61 24.18 109.27C24.84 109.93 25.17 110.74 25.17 111.69C25.17 112.64 24.85 113.43 24.2 114.09C23.55 114.75 22.76 115.07 21.84 115.07C20.92 115.07 20.06 114.74 19.42 114.06C18.78 113.38 18.46 112.59 18.46 111.67C18.46 111.05 18.61 110.48 18.91 109.96C19.21 109.44 19.62 109.03 20.14 108.73C20.66 108.43 21.23 108.27 21.83 108.27L21.82 108.28ZM21.81 109.48C21.21 109.48 20.71 109.69 20.3 110.1C19.89 110.51 19.69 111.04 19.69 111.69C19.69 112.4 19.95 112.97 20.46 113.39C20.86 113.72 21.32 113.88 21.83 113.88C22.41 113.88 22.91 113.67 23.32 113.25C23.73 112.83 23.94 112.31 23.94 111.69C23.94 111.07 23.73 110.55 23.32 110.13C22.91 109.7 22.4 109.49 21.81 109.49V109.48Z" fill="white"/>
<path d="M26.1201 108.44H27.5801C28.5201 108.44 29.2201 108.56 29.6701 108.79C30.1301 109.02 30.5001 109.4 30.8001 109.93C31.1001 110.45 31.2401 111.07 31.2401 111.77C31.2401 112.27 31.1601 112.73 30.9901 113.14C30.8201 113.56 30.6001 113.9 30.3001 114.18C30.0101 114.46 29.6901 114.65 29.3501 114.75C29.0101 114.86 28.4201 114.91 27.5801 114.91H26.1001V108.45L26.1201 108.44ZM27.3401 109.63V113.71H27.9101C28.4701 113.71 28.8801 113.65 29.1301 113.52C29.3801 113.39 29.5901 113.17 29.7501 112.87C29.9101 112.57 29.9901 112.19 29.9901 111.74C29.9901 111.05 29.8001 110.52 29.4101 110.14C29.0601 109.8 28.5101 109.63 27.7401 109.63H27.3201H27.3401Z" fill="white"/>
<path d="M32.1699 108.44H33.3999V112.62C33.3999 112.98 33.4299 113.23 33.4899 113.38C33.5499 113.53 33.6599 113.65 33.7999 113.74C33.9399 113.83 34.1199 113.87 34.3199 113.87C34.5399 113.87 34.7199 113.82 34.8799 113.72C35.0399 113.62 35.1499 113.49 35.2099 113.34C35.2699 113.19 35.2999 112.89 35.2999 112.46V108.43H36.5299V112.28C36.5299 112.93 36.4899 113.38 36.4199 113.63C36.3499 113.88 36.2099 114.13 35.9999 114.36C35.7899 114.59 35.5599 114.77 35.2899 114.88C35.0199 114.99 34.7099 115.05 34.3499 115.05C33.8799 115.05 33.4699 114.94 33.1299 114.73C32.7799 114.51 32.5299 114.24 32.3899 113.92C32.2399 113.6 32.1699 113.05 32.1699 112.28V108.43V108.44Z" fill="white"/>
<path d="M43.72 109.58L42.86 110.4C42.27 109.78 41.62 109.47 40.88 109.47C40.26 109.47 39.74 109.68 39.32 110.1C38.9 110.52 38.69 111.04 38.69 111.66C38.69 112.09 38.78 112.47 38.97 112.81C39.16 113.14 39.42 113.41 39.76 113.6C40.1 113.79 40.48 113.89 40.9 113.89C41.26 113.89 41.58 113.82 41.88 113.69C42.18 113.56 42.5 113.31 42.86 112.96L43.69 113.83C43.21 114.3 42.76 114.62 42.34 114.8C41.92 114.98 41.43 115.07 40.89 115.07C39.89 115.07 39.06 114.75 38.42 114.11C37.78 113.47 37.46 112.66 37.46 111.66C37.46 111.02 37.61 110.44 37.9 109.94C38.19 109.44 38.61 109.04 39.15 108.73C39.69 108.43 40.28 108.27 40.91 108.27C41.44 108.27 41.96 108.38 42.45 108.61C42.94 108.83 43.37 109.15 43.73 109.57L43.72 109.58Z" fill="white"/>
<path d="M44.1199 108.44H47.6899V109.65H46.5099V114.9H45.2599V109.65H44.1099V108.44H44.1199Z" fill="white"/>
<path d="M50.3301 108.44H51.7901C52.7301 108.44 53.4301 108.56 53.8801 108.79C54.3401 109.02 54.7101 109.4 55.0101 109.93C55.3101 110.45 55.4501 111.07 55.4501 111.77C55.4501 112.27 55.3701 112.73 55.2001 113.14C55.0301 113.56 54.8101 113.9 54.5101 114.18C54.2201 114.46 53.9001 114.65 53.5601 114.75C53.2201 114.86 52.6301 114.91 51.7901 114.91H50.3101V108.45L50.3301 108.44ZM51.5501 109.63V113.71H52.1201C52.6801 113.71 53.0901 113.65 53.3401 113.52C53.5901 113.39 53.8001 113.17 53.9601 112.87C54.1201 112.57 54.2001 112.19 54.2001 111.74C54.2001 111.05 54.0101 110.52 53.6201 110.14C53.2701 109.8 52.7201 109.63 51.9501 109.63H51.5301H51.5501Z" fill="white"/>
<path d="M56.4399 108.44H59.9699V109.64H57.6599V110.81H59.9699V111.99H57.6599V113.69H59.9699V114.9H56.4399V108.44V108.44Z" fill="white"/>
<path d="M66.9399 109.58L66.0799 110.4C65.4999 109.78 64.8399 109.47 64.0999 109.47C63.4799 109.47 62.9599 109.68 62.5399 110.1C62.1199 110.52 61.9099 111.04 61.9099 111.66C61.9099 112.09 61.9999 112.47 62.1899 112.81C62.3799 113.14 62.6399 113.41 62.9799 113.6C63.3199 113.79 63.6999 113.89 64.1199 113.89C64.4799 113.89 64.7999 113.82 65.0999 113.69C65.3999 113.56 65.7199 113.31 66.0699 112.96L66.8999 113.83C66.4199 114.3 65.9699 114.62 65.5499 114.8C65.1299 114.98 64.6399 115.07 64.0999 115.07C63.0999 115.07 62.2699 114.75 61.6299 114.11C60.9899 113.47 60.6699 112.66 60.6699 111.66C60.6699 111.02 60.8199 110.44 61.1099 109.94C61.3999 109.44 61.8199 109.04 62.3599 108.73C62.8999 108.43 63.4899 108.27 64.1199 108.27C64.6499 108.27 65.1699 108.38 65.6599 108.61C66.1499 108.83 66.5799 109.15 66.9399 109.57V109.58Z" fill="white"/>
<path d="M67.7202 108.44H68.9502V113.73H70.7402V114.9H67.7202V108.44V108.44Z" fill="white"/>
<path d="M73.6099 108.44H74.8599L77.3499 114.9H76.0699L75.5599 113.57H72.9199L72.3899 114.9H71.1099L73.5999 108.44H73.6099ZM74.2399 110.15L73.3699 112.37H75.0999L74.2399 110.15Z" fill="white"/>
<path d="M78.0498 108.44H79.3498C80.0598 108.44 80.5698 108.5 80.8798 108.63C81.1798 108.76 81.4298 108.97 81.6098 109.26C81.7898 109.55 81.8898 109.91 81.8898 110.31C81.8898 110.73 81.7898 111.09 81.5798 111.38C81.3798 111.67 81.0698 111.88 80.6598 112.03L82.1898 114.9H80.8498L79.3998 112.16H79.2898V114.9H78.0598V108.44H78.0498ZM79.2798 110.97H79.6698C80.0598 110.97 80.3298 110.92 80.4798 110.82C80.6298 110.72 80.6998 110.55 80.6998 110.31C80.6998 110.17 80.6598 110.05 80.5898 109.94C80.5198 109.84 80.4198 109.76 80.2998 109.72C80.1798 109.67 79.9498 109.65 79.6298 109.65H79.2898V110.98L79.2798 110.97Z" fill="white"/>
<path d="M85.0898 108.44H86.3398L88.8298 114.9H87.5499L87.0398 113.57H84.3998L83.8699 114.9H82.5898L85.0798 108.44H85.0898ZM85.7198 110.15L84.8498 112.37H86.5798L85.7198 110.15Z" fill="white"/>
<path d="M88.6101 108.44H92.1801V109.65H91.0001V114.9H89.7501V109.65H88.6001V108.44H88.6101Z" fill="white"/>
<path d="M92.7402 108.44H93.9602V114.9H92.7402V108.44Z" fill="white"/>
<path d="M98.2501 108.28C99.1701 108.28 99.9501 108.61 100.61 109.27C101.27 109.93 101.6 110.74 101.6 111.69C101.6 112.64 101.27 113.43 100.63 114.09C99.9901 114.75 99.1901 115.07 98.2701 115.07C97.3501 115.07 96.4901 114.74 95.8501 114.06C95.2101 113.39 94.8901 112.59 94.8901 111.67C94.8901 111.05 95.0401 110.48 95.3401 109.96C95.6401 109.44 96.0501 109.03 96.5701 108.73C97.0901 108.43 97.6601 108.27 98.2601 108.27L98.2501 108.28ZM98.2401 109.48C97.6401 109.48 97.1401 109.69 96.7301 110.1C96.3201 110.52 96.1201 111.04 96.1201 111.69C96.1201 112.4 96.3801 112.97 96.8901 113.39C97.2901 113.72 97.7501 113.88 98.2601 113.88C98.8401 113.88 99.3401 113.67 99.7501 113.25C100.16 112.83 100.37 112.31 100.37 111.69C100.37 111.07 100.16 110.55 99.7501 110.13C99.3401 109.7 98.8301 109.49 98.2401 109.49V109.48Z" fill="white"/>
<path d="M102.55 108.44H103.73L106.5 112.69V108.44H107.73V114.9H106.55L103.79 110.66V114.9H102.56V108.44H102.55Z" fill="white"/>
<path d="M38.0901 120.88H39.0501V124.13C39.0501 124.41 39.0701 124.61 39.1201 124.72C39.1701 124.84 39.2501 124.93 39.3601 125C39.4701 125.07 39.6101 125.1 39.7701 125.1C39.9401 125.1 40.0801 125.06 40.2101 124.98C40.3301 124.9 40.4201 124.8 40.4601 124.68C40.5101 124.56 40.5301 124.33 40.5301 124V120.87H41.4901V123.87C41.4901 124.38 41.4601 124.73 41.4001 124.92C41.3401 125.12 41.2301 125.3 41.0701 125.49C40.9101 125.67 40.7201 125.81 40.5101 125.9C40.3001 125.99 40.0601 126.03 39.7801 126.03C39.4201 126.03 39.1001 125.95 38.8301 125.78C38.5601 125.61 38.3701 125.4 38.2501 125.15C38.1301 124.9 38.0801 124.47 38.0801 123.87V120.87L38.0901 120.88Z" fill="white"/>
<path d="M42.54 120.88H43.5V125H44.89V125.91H42.54V120.88Z" fill="white"/>
<path d="M46.1601 124.93C46.3101 124.93 46.4301 124.98 46.5401 125.09C46.6401 125.19 46.7001 125.32 46.7001 125.47C46.7001 125.62 46.6501 125.74 46.5401 125.85C46.4401 125.95 46.3101 126.01 46.1601 126.01C46.0101 126.01 45.8901 125.96 45.7801 125.85C45.6801 125.74 45.6201 125.62 45.6201 125.47C45.6201 125.32 45.6701 125.2 45.7801 125.09C45.8801 124.99 46.0101 124.93 46.1601 124.93Z" fill="white"/>
<path d="M52.0402 121.76L51.3702 122.4C50.9102 121.92 50.4002 121.68 49.8302 121.68C49.3502 121.68 48.9402 121.84 48.6202 122.17C48.2902 122.5 48.1302 122.9 48.1302 123.38C48.1302 123.71 48.2002 124.01 48.3502 124.27C48.5002 124.53 48.7002 124.73 48.9702 124.88C49.2402 125.03 49.5302 125.1 49.8602 125.1C50.1402 125.1 50.3902 125.05 50.6202 124.94C50.8502 124.84 51.1002 124.65 51.3802 124.37L52.0302 125.05C51.6602 125.41 51.3102 125.66 50.9802 125.8C50.6502 125.94 50.2702 126.01 49.8502 126.01C49.0702 126.01 48.4302 125.76 47.9302 125.27C47.4302 124.77 47.1802 124.14 47.1802 123.36C47.1802 122.86 47.2902 122.41 47.5202 122.02C47.7502 121.63 48.0702 121.32 48.4902 121.08C48.9102 120.84 49.3702 120.72 49.8602 120.72C50.2702 120.72 50.6702 120.81 51.0602 120.98C51.4402 121.15 51.7802 121.4 52.0502 121.73L52.0402 121.76Z" fill="white"/>
<path d="M54.9899 120.75C55.6999 120.75 56.3099 121.01 56.8199 121.52C57.3299 122.03 57.5899 122.66 57.5899 123.4C57.5899 124.14 57.3399 124.75 56.8299 125.26C56.3299 125.77 55.7099 126.02 54.9899 126.02C54.2699 126.02 53.6099 125.76 53.1099 125.24C52.6099 124.72 52.3599 124.1 52.3599 123.38C52.3599 122.9 52.4799 122.46 52.7099 122.05C52.9399 121.65 53.2599 121.33 53.6699 121.09C54.0799 120.85 54.5199 120.74 54.9899 120.74V120.75ZM54.9799 121.69C54.5099 121.69 54.1199 121.85 53.8099 122.18C53.4899 122.5 53.3299 122.91 53.3299 123.41C53.3299 123.97 53.5299 124.41 53.9299 124.73C54.2399 124.98 54.5999 125.11 54.9999 125.11C55.4499 125.11 55.8399 124.95 56.1599 124.62C56.4799 124.29 56.6399 123.89 56.6399 123.41C56.6399 122.93 56.4799 122.53 56.1599 122.2C55.8399 121.87 55.4499 121.7 54.9899 121.7L54.9799 121.69Z" fill="white"/>
<path d="M58.8502 120.88H59.7802L60.9502 124.39L62.1302 120.88H63.0602L63.9002 125.91H62.9802L62.4402 122.73L61.3702 125.91H60.5302L59.4702 122.73L58.9202 125.91H57.9902L58.8602 120.88H58.8502Z" fill="white"/>
<path d="M64.1099 126.8L66.3699 120.73H67.0399L64.7799 126.8H64.1199H64.1099Z" fill="white"/>
<path d="M67.5801 120.88H70.3201V121.82H68.5301V122.73H70.3201V123.65H68.5301V124.97H70.3201V125.91H67.5801V120.88V120.88Z" fill="white"/>
<path d="M71.2402 120.88H72.2502C72.8002 120.88 73.2002 120.93 73.4402 121.03C73.6802 121.13 73.8702 121.3 74.0102 121.52C74.1502 121.75 74.2202 122.02 74.2202 122.34C74.2202 122.69 74.1302 122.98 73.9402 123.22C73.7502 123.46 73.5102 123.61 73.1902 123.71C73.0102 123.76 72.6702 123.79 72.1802 123.79V125.92H71.2202V120.89L71.2402 120.88ZM72.2002 122.85H72.5002C72.7402 122.85 72.9102 122.83 73.0002 122.8C73.0902 122.77 73.1702 122.71 73.2202 122.63C73.2702 122.55 73.3002 122.46 73.3002 122.34C73.3002 122.15 73.2202 122 73.0702 121.92C72.9602 121.85 72.7602 121.82 72.4602 121.82H72.1902V122.85H72.2002Z" fill="white"/>
<path d="M74.9199 120.88H76.0499C76.7799 120.88 77.3199 120.97 77.6799 121.15C78.0299 121.33 78.3299 121.63 78.5599 122.03C78.7899 122.44 78.8999 122.91 78.8999 123.46C78.8999 123.85 78.8399 124.2 78.7099 124.53C78.5799 124.86 78.3999 125.12 78.1799 125.34C77.9499 125.55 77.7099 125.7 77.4399 125.78C77.1699 125.86 76.7199 125.9 76.0699 125.9H74.9199V120.87V120.88ZM75.8699 121.8V124.97H76.3099C76.7499 124.97 77.0599 124.92 77.2599 124.82C77.4599 124.72 77.6199 124.55 77.7399 124.31C77.8599 124.07 77.9299 123.78 77.9299 123.43C77.9299 122.9 77.7799 122.48 77.4799 122.19C77.2099 121.93 76.7799 121.79 76.1799 121.79H75.8599L75.8699 121.8Z" fill="white"/>
<path d="M108.5 91.26H8.5V91.76H108.5V91.26Z" fill="white"/>
</svg>
