<?xml version="1.0" encoding="UTF-8"?>
<svg id="Layer_2" xmlns="http://www.w3.org/2000/svg" version="1.1" viewBox="0 0 605 762.5">
  <!-- Generator: Adobe Illustrator 29.2.1, SVG Export Plug-In . SVG Version: 2.1.0 Build 116)  -->
  <defs>
    <style>
      .st0, .st1 {
        fill: #fff;
      }

      .st2 {
        opacity: .9;
      }

      .st3, .st1 {
        opacity: .9;
      }

      .st1 {
        isolation: isolate;
      }
    </style>
  </defs>
  <g id="Layer_1-2" class="st2">
    <g class="st3">
      <g>
        <path class="st0" d="M235.1,520.3l-14.6-4.8c-.5-.2-1.1.1-1.2.6l-10.6,32.4c-.2.5,0,1.1.6,1.2l5.8,1.9c.5.2,1.1-.1,1.2-.6l4.1-12.5,3.4,1.1,2.3,15.1c0,.2.2.6.6.7l6.5,2.1c.8.3,1.4-.4,1.3-1.2l-2.6-14.6c4.8-.3,9-3,10.4-7.5,1.9-5.8-1.4-12.1-7.2-14h0ZM234.7,532c-.7,2-3,3.3-5,2.7l-7.2-2.4,2.5-7.6,7.2,2.4c2,.7,3.2,2.9,2.5,4.9h0Z"/>
        <path class="st0" d="M259.3,526.3l-6-1.2c-.5,0-1.1.3-1.1.8l-6.9,33.3c-.1.5.3,1,.8,1.2l6,1.2c.5,0,1.1-.3,1.1-.8l6.9-33.3c.1-.5-.3-1-.8-1.2h0Z"/>
        <path class="st0" d="M284.5,529.2c-10.2-.9-19.1,6.6-20,16.8s6.6,19.1,16.8,20c7.4.7,13-2.2,13-2.2.2-.1.5-.5.5-.8l1.2-13.8c0-.5-.3-1-.8-1l-10.3-.9c-.6,0-1,.3-1.1.9l-.5,5.1c0,.5.3,1,.9,1l3.2.3-.3,3c-1.6.5-3.1.5-4.6.4-5.6-.5-9.7-5.5-9.2-11.1.5-5.6,5.4-10,11-9.5,2.5.2,4.7,1.1,6.5,3,.4.3,1,.4,1.4,0l4.4-4c.5-.4.5-1,0-1.4-3.2-3.3-7.8-5.5-12.1-5.9h0Z"/>
        <path class="st0" d="M311.5,530.2l-6.2.2c-.5,0-1,.5-1,1l.9,34c0,.5.5,1,1,1l6.2-.2c.5,0,1-.5,1-1l-.9-34c0-.5-.5-1-1-1Z"/>
        <path class="st0" d="M334.4,528.2l-12.4,1.8c-.5,0-.9.6-.8,1.1l4.9,33.7c0,.5.5.9,1.1.8l12.4-1.8c9.8-1.4,16.7-10.6,15.3-20.5-1.4-9.8-10.6-16.6-20.4-15.2h0ZM337.9,556.3l-4.9.7-3-20.6,4.9-.7c5.8-.8,10.6,3.1,11.4,8.8.8,5.8-2.7,10.9-8.4,11.8h0Z"/>
        <path class="st0" d="M406.2,539.4l-5.2-2.6c-.4-.2-1,0-1.3.4-1.2,2.1-3.4,3.9-5.6,4.7-5.5,2-11.1-1-13.1-6.3-2-5.4.4-11.4,5.8-13.4,2.4-.9,5-.9,7.4,0,.5.2,1,0,1.2-.4l2.3-5.3c.2-.5,0-1.1-.5-1.3-4.4-1.8-8.5-2-13.3-.2-9.6,3.5-14.6,14.2-11,23.8,3.5,9.7,14.1,14.5,23.8,10.9,4.3-1.6,7.9-4.6,10-9,.2-.5,0-1.1-.4-1.3h0Z"/>
        <path class="st0" d="M414,500.7c-9,5-12,16.3-7,25.2s16.2,12.1,25.1,7,12.1-16.2,7-25.2c-5-9-16.3-12.1-25.2-7.1h0ZM428.1,525.8c-4.9,2.8-11.2,1-13.9-3.9-2.8-4.9-1-11.3,3.8-14,4.9-2.8,11.3-1,14,4,2.8,4.9,1,11.2-3.9,14h0Z"/>
        <path class="st0" d="M477.2,498.8l-13.6-5.8c2.4-4.2,2.5-9.1-.5-12.8-3.8-4.8-10.9-5.5-15.7-1.7l-12,9.6c-.4.4-.5,1-.1,1.4l21.2,26.6c.3.4.9.5,1.4.2l4.8-3.8c.4-.3.5-1,.1-1.4l-8.2-10.2,2.8-2.2,13.9,6.4c.2.1.6.1.9-.1l5.4-4.3c.7-.5.5-1.4-.2-1.7h0ZM456.4,490.9l-6,4.8-5-6.3,6-4.8c1.6-1.3,4.1-1.1,5.5.6,1.4,1.7,1.2,4.3-.5,5.6Z"/>
        <path class="st0" d="M497.9,470.4c-.4-.4-1-.4-1.4,0l-9.8,10.3-5-4.8,8.1-8.5c.4-.4.4-1,0-1.4l-4.1-3.9c-.4-.4-1-.3-1.4,0l-8.1,8.5-4.6-4.4,9.8-10.3c.4-.4.3-1,0-1.4l-4.1-3.9c-.4-.4-1-.4-1.4,0l-14.6,15.5c-.4.4-.3,1,0,1.4l24.7,23.4c.4.4,1,.4,1.4,0l14.6-15.5c.4-.4.3-1,0-1.4l-4.1-3.9h0Z"/>
        <path class="st0" d="M511,441.2l6.4-9.8c.3-.4.2-1.1-.3-1.4l-4.7-3.1c-.4-.3-1.1-.1-1.4.3l-6.4,9.8-6.2-4.1,7.8-11.9c.3-.5.1-1.1-.3-1.4l-4.7-3.1c-.4-.3-1-.2-1.4.3l-11.7,17.8c-.3.5-.1,1.1.3,1.4l28.5,18.6c.4.3,1,.2,1.3-.3l3.3-5.1c.3-.4.2-1.1-.3-1.4l-10.5-6.9h0Z"/>
        <path class="st0" d="M543.8,407.8l-5-2.5c-.5-.2-1.1,0-1.3.4l-5.4,11-24.6-12.2c-.5-.2-1.1,0-1.3.4l-2.7,5.5c-.2.5,0,1.1.4,1.3l30.5,15.1c.5.2,1.1,0,1.3-.4l8.6-17.3c.2-.5,0-1.1-.4-1.3h0Z"/>
        <path class="st0" d="M542,361.5c-9.8-3.2-20.2,2-23.4,11.8-3.2,9.8,2.1,20.1,11.9,23.3s20.1-2,23.3-11.8c3.2-9.8-2-20.1-11.8-23.3h0ZM546,382.3c-1.7,5.3-7.6,8.3-12.9,6.5-5.4-1.8-8.4-7.6-6.6-12.9,1.8-5.4,7.7-8.3,13-6.6,5.3,1.7,8.3,7.6,6.5,13h0Z"/>
        <path class="st0" d="M548.5,319.3c-10.2-1.5-19.5,5.5-21,15.7-1.5,10.2,5.6,19.4,15.8,20.9s19.4-5.5,20.9-15.7-5.5-19.5-15.7-20.9ZM556,339.1c-.8,5.5-6,9.5-11.6,8.7-5.6-.8-9.6-6-8.8-11.6.8-5.6,6.1-9.5,11.7-8.7,5.5.8,9.5,6,8.7,11.6h0Z"/>
        <path class="st0" d="M566.4,303.7c0-.5-.5-1-1-1l-13.1.2v-3.5c0,0,13.5-7.1,13.5-7.1.2-.1.5-.4.5-.8v-6.8c-.1-.9-1-1.2-1.6-.9l-12.9,7.3c-1.9-4.4-5.7-7.5-10.5-7.4-6.1.1-11,5.2-10.9,11.4l.3,15.4c0,.6.5,1,1,1l34-.6c.5,0,1-.4,1-1v-6.1c0,0-.1,0-.1,0ZM537.8,303.2v-7.6c-.2-2.1,1.5-3.9,3.7-4,2.2,0,4.1,1.7,4.2,3.8v7.6c.1,0-7.9.1-7.9.1h0Z"/>
        <path class="st0" d="M528.1,270.1l.8,6.1c0,.5.6.9,1.1.8l33.8-4.3c.5,0,.9-.6.8-1.1l-.8-6.1c0-.5-.6-.9-1.1-.8l-33.8,4.3c-.5,0-.9.6-.8,1.1Z"/>
        <path class="st0" d="M519.7,231.7l1.5,6c.1.6.7.8,1.2.7l17.7-4.5h0c0,0-14,24.8-14,24.8l.3,1.2c.1.5.6.8,1.1.7l33.5-8.6c.5-.1.8-.7.7-1.2l-1.5-5.9c-.1-.6-.7-.8-1.2-.7l-18.6,4.8h0c0,0,14.7-24.8,14.7-24.8,0-.1.1-.6,0-.7l-.2-.8c-.1-.5-.6-.8-1.1-.7l-33.5,8.6c-.5.1-.8.7-.7,1.2h0Z"/>
        <path class="st0" d="M534.2,218.4c9.4-4.1,13.5-14.9,9.4-24.3-3-6.8-8.2-10.3-8.2-10.3-.2-.1-.7-.1-.9,0l-12.6,5.6c-.5.2-.7.8-.5,1.2l4.2,9.5c.2.5.8.7,1.3.5l4.7-2.1c.5-.2.7-.8.5-1.3l-1.3-3,2.7-1.2c1.2,1.2,2,2.5,2.6,3.9,2.3,5.1-.1,11.2-5.3,13.4-5.2,2.3-11.3,0-13.6-5.1-1-2.3-1.3-4.6-.5-7.2.1-.5-.1-1-.6-1.2l-5.6-2c-.5-.2-1.1,0-1.2.6-1.4,4.4-1.1,9.5.6,13.4,4.1,9.4,15,13.6,24.4,9.4h0Z"/>
        <path class="st0" d="M114.2,217.4c-.2,4.5-1.7,30.6-2.2,40.7h6.1c-.5-7.9-2.3-35.1-2.8-40.7h-1.1Z"/>
        <path class="st0" d="M386.9,230.3v-8.3c0-5.8-1.4-7-6.2-7h-1.4v23.2h1.9c4,0,5.8-1.4,5.8-7.9h0Z"/>
        <path class="st0" d="M442.3,326.4v23.4h5.5c6.5,0,11.3-5.1,11.3-11.7s-4.7-11.7-11.3-11.7h-5.5Z"/>
        <path class="st0" d="M208.7,326.1h-8.6v9h8.6c2.4,0,4.4-2.2,4.4-4.6s-2-4.4-4.4-4.4h0Z"/>
        <path class="st0" d="M520.4,92.7c1.5-3.1,2.9-6.1,4.4-9.1,5.6-11.1,11.4-21,16.7-29.4,5.9-9.3,11.2-16.8,15.2-22.1,3.1-4.1.7-10.1-4.4-10.9-22.3-3.6-43.7-5.9-64.2-7.3-27.5-1.8-53.4-1.8-77.7-.2-4.7.3-9.4.7-14,1.1C366.4,5,334.8,0,302.5,0,221.7,0,145.7,31.5,88.6,88.6,31.5,145.7,0,221.7,0,302.5s31.5,156.8,88.6,213.9c57.1,57.1,133.1,88.6,213.9,88.6s156.8-31.5,213.9-88.6,88.6-133.1,88.6-213.9-30-153.2-84.6-209.8h0ZM424.2,196.7h44.7v20.4h-20v18.6h19v20.4h-19v24h22.9l-2.8,20.4h-44.9v-103.8h0ZM468.7,338c0,11.2-9.1,20.3-20.3,20.3h-14.1c-.6,0-1-.5-1-1.1v-38.3c0-.6.5-1.1,1-1.1h14.1c11.2,0,20.3,9.1,20.3,20.2h0ZM414,319v6.3c0,.6-.5,1.1-1.1,1.1h-16v7.2h13.2c.6,0,1.1.5,1.1,1.1v6.3c0,.6-.5,1.1-1.1,1.1h-13.2v7.8h16c.6,0,1.1.5,1.1,1.1v6.3c0,.6-.5,1.1-1.1,1.1h-23.9c-.6,0-1.1-.5-1.1-1.1v-38.3c0-.6.5-1.1,1.1-1.1h23.9c.6,0,1.1.5,1.1,1.1ZM411.9,223.3v3.7c0,11.7-3.9,17.6-10,20.7,7.5,3.4,9.5,9.2,9.5,24.3s-.1,24.3.3,28.4h-24c-1.1-1.9-1.4-9-1.4-32.7s-.9-11.1-5.9-11.1h-1.2v43.8h-24.6v-103.8h30.7c20.3,0,26.6,10.3,26.6,26.6h0ZM366.3,319v38.3c0,.6-.5,1.1-1.1,1.1h-6.9c-.6,0-1.1-.5-1.1-1.1v-38.3c0-.6.5-1.1,1.1-1.1h6.9c.6,0,1.1.5,1.1,1.1ZM166.3,475.7c-8.8,23-21.4,46.3-37.9,65.6-.4.5-.7.9-.9,1.5-12.3-9-24.1-19-35.1-30.1C36.2,456.5,5.3,381.9,5.3,302.5s30.9-154,87-210.1C148.5,36.2,223.1,5.3,302.5,5.3s54.3,3.7,80,10.9C174.1,40.5,89.5,177.1,89.5,177.1c-55.1,86.4-10.7,180.3-10.7,180.3,25.4,56.7,70.2,96.5,84.9,108.5,2.9,2.4,3.9,6.3,2.6,9.8h0ZM335.3,334.7c.6,0,1.1.5,1.1,1.1v6.3c0,.6-.5,1.1-1.1,1.1h-13.2v14c0,.6-.5,1.1-1.1,1.1h-6.8c-.6,0-1.1-.5-1.1-1.1v-38.3c0-.6.5-1.1,1.1-1.1h23.9c.6,0,1.1.5,1.1,1.1v6.3c0,.6-.5,1.1-1.1,1.1h-16v8.3h13.2ZM312.4,301.7c-19.8,0-28-8.1-28-28.5v-76.5h25.1v80.1c0,3.7.9,5.8,3.3,5.8s3.6-1.9,3.6-5.8v-80.1h25.4v77c0,22-10.3,28-29.3,28ZM291.5,319v38.3c0,.6-.5,1.1-1.1,1.1h-6.9c-.6,0-1.1-.5-1.1-1.1v-38.3c0-.6.5-1.1,1.1-1.1h6.9c.6,0,1.1.5,1.1,1.1ZM238.3,326.4c-.6,0-1.1-.5-1.1-1.1v-6.3c0-.6.5-1.1,1.1-1.1h25.7c.6,0,1.1.5,1.1,1.1v6.3c0,.6-.5,1.1-1.1,1.1h-8.3v30.9c0,.6-.5,1.1-1.1,1.1h-6.9c-.6,0-1.1-.5-1.1-1.1v-30.9h-8.3,0ZM246,302c-19.6,0-27.1-10.8-27.1-29.3v-6.2h23.5v8.4c0,6.2,1.1,7.8,3.4,7.8s3-2.2,3-6.1c0-7.8-.9-10.1-10.4-19-12.6-11.9-18.6-17.9-18.6-33s6.2-29.5,26.3-29.5,26,13.6,26,27.6v6.4h-21.8v-7.9c0-5.3-.9-6.7-3.3-6.7s-3,1.6-3,6.2.9,7.6,8.7,14.6c14.2,12.6,20.9,19.2,20.9,35.7s-5.8,31-27.7,31h0ZM221.4,356.7c.4.8,0,1.7-1,1.7h-7.7c-.5,0-.8-.3-.9-.5l-7.7-15.3h-4v14.7c0,.6-.5,1.1-1.1,1.1h-6.9c-.6,0-1.1-.5-1.1-1.1v-38.3c0-.6.5-1.1,1.1-1.1h17.3c6.9,0,12.6,5.6,12.6,12.5s-3.5,9.6-8.6,11.6l7.9,14.7h0ZM181.6,282.7c2.2,0,3-2.2,3-6.1,0-7.8-.9-10.1-10.4-19-12.6-11.9-18.6-17.9-18.6-33s6.2-29.5,26.3-29.5,26,13.6,26,27.6v6.4h-21.8v-7.9c0-5.3-.9-6.7-3.3-6.7s-3,1.6-3,6.2.9,7.6,8.7,14.6c14.2,12.6,20.9,19.2,20.9,35.7s-5.8,31-27.7,31-27.1-10.8-27.1-29.3v-6.2h23.5v8.4c0,6.2,1.1,7.8,3.4,7.8h0ZM113.4,349.7c2.7,0,5.7-1,7.8-2.8.4-.4,1.2-.4,1.5,0l4.5,4.8c.4.4.3,1.2,0,1.6-3.9,3.8-8.9,5.6-14.1,5.6-11.6,0-20.9-9.2-20.9-20.8s9.3-20.9,20.9-20.9,10.1,1.8,14,5.4c.5.5.5,1.2,0,1.6l-4.5,4.7c-.4.4-1,.4-1.4,0-2.1-1.9-5-3-7.8-3-6.5,0-11.3,5.4-11.3,11.9s4.9,11.7,11.4,11.7h0ZM120.4,300.5l-1.2-21.8h-8.1l-1.2,21.8h-25.2l11.1-103.8h39.4l10.9,103.8h-25.6ZM171.8,325.3c0,.6-.5,1.1-1.1,1.1h-16v7.2h13.2c.6,0,1.1.5,1.1,1.1v6.3c0,.6-.5,1.1-1.1,1.1h-13.2v7.8h16c.6,0,1.1.5,1.1,1.1v6.3c0,.6-.5,1.1-1.1,1.1h-23.9c-.6,0-1.1-.5-1.1-1.1v-38.3c0-.6.5-1.1,1.1-1.1h23.9c.6,0,1.1.5,1.1,1.1v6.3ZM512.6,512.6c-56.1,56.1-130.8,87-210.1,87s-90.5-10.4-130.6-30.1c14.6-38.3,29.1-64.3,35.2-74.6,1.8-3,5.2-4.6,8.7-4.1,173.5,27.4,236.3-61.8,257.5-111.7.7-1.4,1.4-2.8,2-4.2,20-45.4,19.6-166.3,19.3-189.9l.5-6.7c2-23.8,6.8-38,14.6-60.1,2.6-7.1,5.3-13.9,8.2-20.4,52.7,55.5,81.7,127.8,81.7,204.6s-30.9,154-87,210.1h0Z"/>
      </g>
      <g>
        <path class="st0" d="M581,79.7c-.5-1.9-1.3-3.8-2.3-5.5-1-1.7-2.2-3.2-3.6-4.6-1.4-1.4-2.9-2.6-4.6-3.6-1.7-1-3.5-1.8-5.5-2.3-2-.5-4-.8-6.1-.8s-4.1.3-6.1.8c-2,.5-3.8,1.3-5.5,2.3-1.7,1-3.2,2.2-4.6,3.6-1.4,1.4-2.6,2.9-3.6,4.6-1,1.7-1.8,3.5-2.3,5.5-.5,1.9-.8,4-.8,6.1s.3,4.1.8,6.1c.5,1.9,1.3,3.8,2.3,5.4,1,1.7,2.2,3.2,3.6,4.6,1.4,1.4,2.9,2.6,4.6,3.6,1.7,1,3.5,1.8,5.5,2.3,1.9.5,4,.8,6.1.8s4.1-.3,6.1-.8c2-.6,3.8-1.3,5.5-2.3,1.7-1,3.2-2.2,4.6-3.6,1.4-1.4,2.6-2.9,3.6-4.6,1-1.7,1.8-3.5,2.3-5.5.5-1.9.8-4,.8-6.1s-.3-4.1-.8-6.1ZM577.1,91c-.4,1.6-1.1,3.2-1.9,4.6-.8,1.4-1.8,2.7-2.9,3.9-1.2,1.2-2.4,2.2-3.8,3-1.4.8-2.9,1.5-4.5,1.9-1.6.4-3.3.7-5,.7-2.6,0-5.1-.5-7.3-1.5-2.3-1-4.2-2.3-5.9-4.1-1.7-1.7-3-3.8-4-6.1-1-2.3-1.4-4.8-1.4-7.5s.2-3.5.7-5.2c.4-1.7,1-3.2,1.9-4.6.8-1.4,1.8-2.7,2.9-3.9,1.1-1.2,2.4-2.2,3.8-3,1.4-.8,2.9-1.5,4.5-1.9,1.6-.4,3.3-.7,5-.7s3.4.2,5,.7c1.6.4,3.1,1.1,4.5,1.9,1.4.8,2.7,1.8,3.8,3,1.1,1.2,2.1,2.5,2.9,3.9.8,1.4,1.4,3,1.9,4.6.5,1.7.7,3.4.7,5.2s-.2,3.5-.7,5.2h0ZM565.3,88.7c-.3-.4-.7-.8-1.2-1,2-.6,3.5-1.6,4.4-3,1-1.4,1.4-3,1.4-4.8s-.9-4.6-2.7-5.9c-1.8-1.4-4.6-2.1-8.5-2.1h-10v27.8h6.7v-10.1h1.7c.5,0,.9,0,1.2.2.3.2.5.4.7.7l4.5,8.2c.4.7,1,1,2,1h6.4l-5.6-9.5c-.3-.5-.6-1-.9-1.4h0ZM563.2,82.5c-.1.5-.4.9-.8,1.3-.4.3-.9.6-1.6.8-.7.2-1.5.3-2.6.3h-2.7v-8h3.3c1,0,1.7,0,2.3.2.6.2,1.1.4,1.4.7.3.3.6.7.7,1.2.1.5.2,1.1.2,1.7s0,1.2-.2,1.8h0Z"/>
        <path class="st0" d="M566.2,90.1c-.3-.5-.6-1-.9-1.4s-.7-.8-1.2-1c2-.6,3.5-1.6,4.4-3,1-1.4,1.4-3,1.4-4.8s-.9-4.6-2.7-5.9c-1.8-1.4-4.6-2.1-8.5-2.1h-10v27.8h6.7v-10.1h1.7c.5,0,.9,0,1.2.2.3.2.5.4.7.7l4.5,8.2c.4.7,1,1,2,1h6.4l-5.6-9.5h0ZM563.2,82.5c-.1.5-.4.9-.8,1.3-.4.3-.9.6-1.6.8-.7.2-1.5.3-2.6.3h-2.7v-8h3.3c1,0,1.7,0,2.3.2.6.2,1.1.4,1.4.7.3.3.6.7.7,1.2.1.5.2,1.1.2,1.7s0,1.2-.2,1.8h0Z"/>
        <path class="st0" d="M566.2,90.1c-.3-.5-.6-1-.9-1.4s-.7-.8-1.2-1c2-.6,3.5-1.6,4.4-3,1-1.4,1.4-3,1.4-4.8s-.9-4.6-2.7-5.9c-1.8-1.4-4.6-2.1-8.5-2.1h-10v27.8h6.7v-10.1h1.7c.5,0,.9,0,1.2.2.3.2.5.4.7.7l4.5,8.2c.4.7,1,1,2,1h6.4l-5.6-9.5h0ZM563.2,82.5c-.1.5-.4.9-.8,1.3-.4.3-.9.6-1.6.8-.7.2-1.5.3-2.6.3h-2.7v-8h3.3c1,0,1.7,0,2.3.2.6.2,1.1.4,1.4.7.3.3.6.7.7,1.2.1.5.2,1.1.2,1.7s0,1.2-.2,1.8h0Z"/>
      </g>
    </g>
    <path class="st1" d="M143.6,666.4c-2.2,0-3.8.8-5,2.4-1.2,1.6-1.8,3.9-1.8,6.8,0,6,2.3,9.1,6.8,9.1s4.2-.5,6.9-1.4v4.8c-2.2.9-4.7,1.4-7.4,1.4-3.9,0-6.9-1.2-9-3.6-2.1-2.4-3.1-5.8-3.1-10.3s.5-5.3,1.5-7.4c1-2.1,2.5-3.7,4.4-4.9,1.9-1.1,4.2-1.7,6.8-1.7s5.3.6,7.9,1.9l-1.9,4.7c-1-.5-2-.9-3.1-1.3-1-.4-2-.5-3-.5M172.3,689.1h-15.6v-27.1h15.6v4.7h-9.9v5.9h9.2v4.7h-9.2v7h9.9v4.7h0ZM184,678.7v10.4h-5.7v-27.1h7.9c3.7,0,6.4.7,8.2,2,1.8,1.3,2.6,3.4,2.6,6.1s-.4,3-1.3,4.2c-.9,1.2-2.1,2.2-3.7,2.9,4.1,6.1,6.7,10,8,11.8h-6.4l-6.5-10.4h-3.1ZM184,674.1h1.9c1.8,0,3.1-.3,4-.9.9-.6,1.3-1.6,1.3-2.8s-.4-2.2-1.3-2.7-2.2-.8-4.1-.8h-1.7v7.3h0ZM214.2,689.1h-5.7v-22.3h-7.4v-4.8h20.4v4.8h-7.4v22.3h0ZM226.1,662h5.7v27.1h-5.7v-27.1ZM244.6,689.1h-5.6v-27.1h15.5v4.7h-9.9v7h9.2v4.7h-9.2v10.7h0ZM260.2,662h5.7v27.1h-5.7v-27.1ZM288.7,689.1h-15.6v-27.1h15.6v4.7h-9.9v5.9h9.2v4.7h-9.2v7h9.9v4.7h0ZM317.2,675.3c0,4.5-1.3,7.9-3.8,10.2s-6.2,3.5-11,3.5h-7.7v-27.1h8.5c4.4,0,7.9,1.2,10.3,3.5,2.4,2.3,3.7,5.6,3.7,9.8M311.2,675.5c0-5.8-2.6-8.7-7.7-8.7h-3.1v17.6h2.5c5.5,0,8.3-3,8.3-8.9M333.4,662h8.4c3.8,0,6.6.5,8.4,1.6,1.7,1.1,2.6,2.8,2.6,5.2s-.4,3-1.1,4c-.8,1-1.8,1.7-3,1.9v.2c1.7.4,3,1.1,3.7,2.2.8,1,1.1,2.5,1.1,4.2,0,2.5-.9,4.4-2.7,5.8-1.8,1.4-4.2,2.1-7.3,2.1h-10.1v-27.1h0ZM339.2,672.8h3.3c1.5,0,2.7-.2,3.4-.7.7-.5,1-1.3,1-2.4s-.4-1.8-1.1-2.2c-.8-.5-2-.7-3.6-.7h-3v6h0ZM339.2,677.3v7h3.7c1.6,0,2.8-.3,3.5-.9.8-.6,1.1-1.5,1.1-2.8,0-2.2-1.6-3.4-4.8-3.4h-3.5ZM367.7,673.2l5.6-11.2h6.2l-9,16.5v10.5h-5.7v-10.3l-9-16.7h6.2l5.6,11.2h0ZM153.9,726c0,3.2-1.1,5.7-3.4,7.5s-5.5,2.7-9.5,2.7-7.1-.7-10-2.1v-6.9c2.4,1,4.4,1.8,6,2.2,1.6.4,3.1.7,4.5.7s2.9-.3,3.8-.9c.9-.6,1.3-1.6,1.3-2.8s-.2-1.3-.6-1.8c-.4-.5-.9-1.1-1.7-1.6-.7-.5-2.3-1.3-4.6-2.4-2.1-1-3.8-2-4.8-2.9-1.1-.9-1.9-2-2.6-3.2-.6-1.2-1-2.7-1-4.3,0-3.1,1.1-5.6,3.2-7.3s5-2.7,8.8-2.7,3.6.2,5.2.7c1.7.4,3.4,1,5.2,1.8l-2.4,5.8c-1.9-.8-3.4-1.3-4.7-1.6-1.2-.3-2.4-.5-3.6-.5s-2.5.3-3.2,1c-.8.7-1.1,1.5-1.1,2.6s.1,1.2.5,1.7c.3.5.8,1,1.4,1.4.7.5,2.2,1.3,4.7,2.5,3.3,1.6,5.5,3.2,6.8,4.7,1.2,1.6,1.8,3.5,1.8,5.8M172.8,706.3c-2.8,0-5,1-6.5,3.2-1.5,2.1-2.3,5-2.3,8.8,0,7.8,2.9,11.8,8.8,11.8s5.5-.6,9-1.8v6.3c-2.9,1.2-6.1,1.8-9.7,1.8-5.1,0-9-1.5-11.7-4.7-2.7-3.1-4.1-7.6-4.1-13.4s.7-6.9,2-9.6,3.2-4.9,5.7-6.3c2.5-1.5,5.4-2.2,8.8-2.2s6.9.8,10.3,2.5l-2.4,6.1c-1.3-.6-2.6-1.2-4-1.6-1.3-.5-2.6-.7-3.9-.7M210.5,726c0,3.2-1.1,5.7-3.4,7.5s-5.5,2.7-9.5,2.7-7.1-.7-10-2.1v-6.9c2.4,1,4.4,1.8,6,2.2,1.6.4,3.1.7,4.5.7s2.9-.3,3.8-.9c.9-.6,1.3-1.6,1.3-2.8s-.2-1.3-.6-1.8c-.4-.5-.9-1.1-1.7-1.6-.7-.5-2.3-1.3-4.6-2.4-2.1-1-3.8-2-4.8-2.9-1.1-.9-1.9-2-2.6-3.2-.6-1.2-1-2.7-1-4.3,0-3.1,1.1-5.6,3.2-7.3s5-2.7,8.8-2.7,3.6.2,5.2.7c1.7.4,3.4,1,5.2,1.8l-2.4,5.8c-1.9-.8-3.4-1.3-4.7-1.6-1.2-.3-2.4-.5-3.6-.5s-2.5.3-3.3,1c-.8.7-1.1,1.5-1.1,2.6s.1,1.2.5,1.7c.3.5.8,1,1.4,1.4.7.5,2.2,1.3,4.7,2.5,3.3,1.6,5.5,3.2,6.8,4.7,1.2,1.6,1.8,3.5,1.8,5.8M247,716h14v18.2c-2.3.7-4.4,1.3-6.4,1.6-2,.3-4,.4-6.1.4-5.3,0-9.4-1.6-12.2-4.7s-4.2-7.6-4.2-13.4,1.6-10.1,4.9-13.3c3.2-3.2,7.8-4.8,13.5-4.8s7.1.7,10.5,2.2l-2.5,6c-2.6-1.3-5.2-1.9-8-1.9s-5.8,1.1-7.8,3.2c-1.9,2.2-2.9,5.1-2.9,8.7s.8,6.7,2.4,8.8c1.6,2,3.8,3,6.8,3s3.1-.2,4.8-.5v-7.3h-6.7v-6.2h0ZM276.6,735.8h-7.3v-37.5h7.3v37.5ZM309.2,722.3c0,4.4-1.2,7.8-3.5,10.3-2.3,2.5-5.5,3.7-9.6,3.7s-4.9-.6-6.8-1.7c-2-1.1-3.5-2.8-4.5-4.9-1.1-2.1-1.6-4.6-1.6-7.4,0-4.4,1.1-7.8,3.4-10.3s5.5-3.7,9.7-3.7,4.9.6,6.8,1.7c2,1.1,3.5,2.7,4.5,4.8,1.1,2.1,1.6,4.6,1.6,7.4M290.6,722.3c0,2.7.4,4.7,1.3,6,.9,1.4,2.3,2,4.3,2s3.4-.7,4.2-2c.9-1.3,1.3-3.4,1.3-6s-.4-4.7-1.3-6c-.9-1.3-2.3-2-4.3-2s-3.4.7-4.2,2c-.9,1.3-1.3,3.3-1.3,6M330.8,708.4c3.2,0,5.7,1.2,7.5,3.7s2.7,5.9,2.7,10.2-.9,7.9-2.8,10.3-4.4,3.7-7.6,3.7-5.6-1.2-7.4-3.5h-.5l-1.2,3h-5.6v-37.5h7.3v8.7c0,1.1-.1,2.9-.3,5.3h.3c1.7-2.7,4.3-4,7.6-4M328.4,714.3c-1.8,0-3.1.6-4,1.7-.8,1.1-1.3,3-1.3,5.5v.8c0,2.9.4,5,1.3,6.2.9,1.2,2.2,1.9,4.1,1.9s2.7-.7,3.6-2.1,1.3-3.4,1.3-6-.5-4.6-1.4-6c-.9-1.3-2.1-2-3.7-2M364.6,735.8l-1.4-3.7h-.2c-1.2,1.5-2.5,2.6-3.8,3.2-1.3.6-3,.9-5.1.9s-4.6-.7-6.1-2.2c-1.5-1.5-2.2-3.6-2.2-6.3s1-5,3-6.3c2-1.3,5-2.1,9-2.2l4.7-.2v-1.2c0-2.7-1.4-4.1-4.2-4.1s-4.7.7-7.6,2l-2.4-5c3.1-1.6,6.5-2.4,10.3-2.4s6.4.8,8.3,2.4c1.9,1.6,2.9,4,2.9,7.2v17.9h-5.1,0ZM362.4,723.3h-2.8c-2.1.2-3.7.6-4.8,1.3-1,.7-1.6,1.8-1.6,3.2,0,2.1,1.2,3.1,3.6,3.1s3.1-.5,4.1-1.5c1-1,1.5-2.3,1.5-3.9v-2.2h0ZM385.1,735.8h-7.3v-37.5h7.3v37.5ZM427.9,726c0,3.2-1.1,5.7-3.4,7.5-2.3,1.8-5.5,2.7-9.5,2.7s-7.1-.7-10-2.1v-6.9c2.4,1,4.4,1.8,6,2.2,1.6.4,3.1.7,4.5.7s2.9-.3,3.8-.9c.9-.6,1.3-1.6,1.3-2.8s-.2-1.3-.6-1.8c-.4-.5-1-1.1-1.7-1.6-.7-.5-2.3-1.3-4.6-2.4-2.1-1-3.8-2-4.8-2.9-1.1-.9-1.9-2-2.6-3.2-.6-1.2-1-2.7-1-4.3,0-3.1,1-5.6,3.2-7.3,2.1-1.8,5-2.7,8.8-2.7s3.6.2,5.2.7c1.7.4,3.4,1,5.2,1.8l-2.4,5.8c-1.9-.8-3.4-1.3-4.7-1.6-1.2-.3-2.4-.5-3.6-.5s-2.5.3-3.2,1c-.8.7-1.1,1.5-1.1,2.6s.1,1.2.5,1.7c.3.5.8,1,1.5,1.4.7.5,2.2,1.3,4.7,2.5,3.3,1.6,5.5,3.2,6.8,4.7,1.2,1.6,1.8,3.5,1.8,5.8M446.4,736.3c-4.3,0-7.7-1.2-10.2-3.6s-3.7-5.8-3.7-10.2,1.1-8,3.4-10.5,5.4-3.7,9.4-3.7,6.8,1.1,8.9,3.2,3.2,5.2,3.2,9v3.6h-17.4c0,2.1.7,3.7,1.9,4.9,1.2,1.2,2.8,1.8,4.9,1.8s3.2-.2,4.6-.5c1.5-.3,3-.9,4.5-1.6v5.7c-1.3.6-2.6,1.1-4.1,1.4-1.5.3-3.2.5-5.3.5M445.4,713.6c-1.6,0-2.8.5-3.7,1.5-.9,1-1.4,2.4-1.5,4.2h10.3c0-1.8-.5-3.2-1.4-4.2-.9-1-2.1-1.5-3.7-1.5M478.9,708.4c1,0,1.8,0,2.5.2l-.5,6.9c-.6-.2-1.3-.2-2.2-.2-2.3,0-4.2.6-5.5,1.8-1.3,1.2-2,2.9-2,5v13.7h-7.3v-26.9h5.6l1.1,4.5h.4c.8-1.5,2-2.7,3.4-3.7,1.4-.9,3-1.4,4.6-1.4M493.1,735.8l-10.3-26.9h7.7l5.2,15.3c.6,1.9.9,3.8,1.1,5.5h.1c0-1.5.4-3.4,1.1-5.5l5.2-15.3h7.7l-10.3,26.9h-7.5ZM514.9,701.9c0-2.4,1.3-3.6,4-3.6s4,1.2,4,3.6-.3,2-1,2.7c-.7.6-1.7,1-3,1-2.7,0-4-1.2-4-3.6M522.6,735.8h-7.3v-26.9h7.3v26.9ZM541.7,736.3c-8.4,0-12.6-4.6-12.6-13.8s1.1-8.1,3.4-10.5c2.3-2.4,5.5-3.6,9.8-3.6s5.9.6,8.4,1.8l-2.2,5.7c-1.2-.5-2.2-.8-3.2-1.2-1-.3-2-.4-3-.4-3.8,0-5.7,2.7-5.7,8.1s1.9,7.9,5.7,7.9,2.7-.2,3.9-.6c1.2-.4,2.4-1,3.6-1.8v6.3c-1.2.8-2.4,1.3-3.6,1.6-1.2.3-2.7.4-4.6.4M568.8,736.3c-4.3,0-7.7-1.2-10.2-3.6s-3.7-5.8-3.7-10.2,1.1-8,3.4-10.5,5.4-3.7,9.3-3.7,6.8,1.1,8.9,3.2c2.1,2.2,3.2,5.2,3.2,9v3.6h-17.3c0,2.1.7,3.7,1.8,4.9,1.2,1.2,2.8,1.8,4.9,1.8s3.2-.2,4.6-.5c1.4-.3,3-.9,4.5-1.6v5.7c-1.3.6-2.7,1.1-4.1,1.4-1.5.3-3.2.5-5.3.5M567.8,713.6c-1.6,0-2.8.5-3.7,1.5-.9,1-1.4,2.4-1.5,4.2h10.3c0-1.8-.5-3.2-1.4-4.2-.9-1-2.2-1.5-3.7-1.5M605,727.8c0,2.8-1,4.9-2.9,6.3s-4.8,2.2-8.6,2.2-3.6-.1-5-.4-2.7-.7-3.9-1.2v-6.1c1.4.6,2.9,1.2,4.6,1.6,1.7.4,3.2.7,4.5.7,2.7,0,4-.8,4-2.3s-.2-1-.5-1.4c-.3-.4-1-.8-1.8-1.2-.9-.5-2-1-3.5-1.6-2.1-.9-3.6-1.7-4.6-2.4s-1.7-1.6-2.1-2.5c-.4-1-.7-2.1-.7-3.5,0-2.4.9-4.2,2.8-5.5,1.8-1.3,4.5-2,7.9-2s6.4.7,9.5,2.1l-2.2,5.3c-1.3-.6-2.6-1-3.8-1.4-1.2-.4-2.4-.5-3.6-.5-2.2,0-3.2.6-3.2,1.8s.3,1.2,1,1.7c.7.5,2.2,1.2,4.6,2.1,2.1.8,3.6,1.6,4.6,2.4,1,.7,1.7,1.6,2.2,2.5.5,1,.7,2.1.7,3.4M14.1,757.9h0s0,0,0,0h0ZM14.1,757.9h0,0ZM118.5,703.2c0,32.7-26.5,59.3-59.3,59.3s-23.8-3.8-33.3-10.2c-.6.2-1.3.4-2,.5,0,0-3.4,4.9-7.3,5.2-1.8.1-2.5-.4-2.2-2.3.1-.9,1.1-6.4,2-11.4-10.2-10.7-16.5-25.1-16.5-41,0-32.7,26.5-59.3,59.3-59.3s59.3,26.5,59.3,59.3M102.1,666.9l-5.7,2.8c8.1,8.9,13,20.6,13,33.6s-5.9,26.9-15.4,36.1c1,.6,2.2,1.4,2.3,1.6.2.2,0,.7-.4.8-.4,0-3.3.4-5.4.7-8.6,6.8-19.4,11-31.2,11s-16.5-2.1-23.5-5.8c-2.1,1.6-4.1,2.9-5.6,3.8,8.5,5.1,18.4,8.2,29,8.2,31.1,0,56.3-25.2,56.3-56.3s-5.1-26.6-13.5-36.4M100.5,663.1c-.2,0-.7.2-1.4.3-10.2-10.2-24.2-16.5-39.7-16.5-31.1,0-56.3,25.2-56.3,56.3s5.4,27.4,14.2,37.3c.5-2.5.8-4.4.8-4.4-1,.8-2.5-.2-3.1-.6-.3-.2-.3-.7-.2-1,.3-.8,1.1-3.1,1.9-5.2-4.7-7.6-7.4-16.5-7.4-26.1,0-27.7,22.4-50.1,50.1-50.1s23.7,4.6,32.4,12c-9.4,2.2-22.8,5.4-22.8,5.4,0,0-2.8-3.6-11-2.5-8.2,1.1-12.7,3.6-16.5,8-4.1,4.7-3.3,12.8-6.2,17.8-1.3,2.2-4.9,3.1-8.4,9.8-3.6,7.1-5.9,19.5-10.4,31.1,0,0,.8.6,1.8,0,1.5-1.1,2.1-2.2,2.1-2.2,0,0-3.9,22.1-4.1,22.8-.1.7.5,1.2,2,.5,2.2-1,4.9-5,4.9-5,0,0,.9.7,3.9-1.1,3-1.8,8.5-5.6,13.3-10.3.3-.3.8-.5,1.4-.2.6.3,1.1.6,1.8.4.7-.2,1.1-1.1,1.1-1.1l1.1-.5s1.6-.2,4.4-.3c3.8-.2,8.3,0,8.3,0,0,0-.5,1-.6,1.3-.1.2.8.5,1.2.4,1-.1,1.6-1.3,1.6-1.3,0,0,.4.2.6.3s.5.2.5-.1,0-.5,0-.5c0,0,3.1.4,6,1.5,3.8,1.5,8.7,1.8,9.3,1.9.6.1,2.7,1.7,4.3,3.9.2.2.5.4.7,0,0-.2.4-1.3.4-1.5.1-.5-.5-1.2-1-1.6-.2-.2-.3-.3-.6-.5-.2-.1-.3-.5,0-.4s3.1.7,4.5.5c1.3-.1,6-1.1,6.4-1.3.4-.1.5-.3.3-.5-.2-.2-.6-.7-1.6-1.1-.9-.4-1.1-.3-1.8,0-.4.1-1.2.4-2.2.6-.4,0-1.6.1-3.2,0-1.6-.1-4.6-.2-7.5-.6-2.9-.4-3.4-.6-5.6-1.1s-3.5-1-5.1-1.5c-1.6-.5-3.6-1.2-3.6-1.2,0,0-.1-1.8-1.3-2.5-.5-.3-.8-.6-2-.8s-1.9-.3-2.1-.3-.5-.1-.8-.2c-.2,0-2.7-1-4-1.6-.5-.3-.7-.6,0-1.2,2.6-2.8,10.8-11.5,13.6-18.3,3.4-8.2,1.6-15.5,1-19.2-.6-3.7-.9-5.6-.9-5.9,0-.4,0-.6.4-.9s1.7-1.4,2.2-1.8,3-2.1,3.2-4.8l30-12.9c.9-.4.7-1.6-.6-1.3M56.9,714s-8.8,11.2-18.5,19.9c-8.6,7.7-14.8,12.1-14.8,12.1,0,0,.3-2.9,2-9.8,1.2-5.1,3.3-10.7,3.4-11,.2-.4.7-.3.6.2-.2,1.3-.2,2.8-.1,4.7,0,2.2.8,4.6.8,4.6,0,0,4.1-2.4,9.8-7.2,5.2-4.3,15.9-13.5,16.4-13.8s.8,0,.5.4M59,677.3c-.4,1.3-1.8,2.1-3,1.7-1.2-.4-1.8-1.8-1.3-3.1.4-1.3,1.8-2.1,3-1.7,1.2.4,1.8,1.8,1.4,3.1M50.4,732c.7.3,2.3,1,3.9,1.7.5.2.5.8-.2.8-2.2,0-5,.1-7.7.1-.6,0-.7-.4-.4-.8.4-.5,1.8-1.8,2.1-2.1.3-.3.7-.4,1.2-.2.4.2,1,.5,1,.5M69,724.9c0,1,.4,3.7,1.8,7.2,1.2,2.8,3.5,4.4,5.6,4.7,1.7.3,1.9-1.2,1.9-1.2,0,0,1.8.3,1.3-3.3-.6-3.6-5.8-5-7.8-5.6-1.4-.4-2.2-1.3-2.6-1.8-.1-.2-.2-.2-.2,0M96.9,722.1c-.8.2-2.3.5-4,.8-2.5.5-7,1.9-9.5,5.8-3,4.7-2.7,8.1-2.7,8.1,0,0,.9-1.7,2.1-3.2.9-1.2,2.4-2.1,3.2-2.5.2-.1.3,0,.2.1-.6.6-1.7,1.8-2.6,3.1-1.1,1.5-1.5,2.9-1.5,2.9,0,0,.8,0,1.9-.5,1.5-.8,4.1-2.7,5.7-4.9,1.8-2.4,4-5.8,5-7,.7-.8,1.7-2,2.4-2.5.2-.2,0-.4-.2-.3"/>
  </g>
</svg>