<svg width="269" height="216" viewBox="0 0 269 216" fill="none" xmlns="http://www.w3.org/2000/svg">
<g clip-path="url(#clip0_3135_23970)" filter="url(#filter0_d_3135_23970)">
<path d="M69.7699 65.7H59.5599V103.24H53.4899V65.7H44.3799V60.18H53.4899V48.4C53.4899 36.99 59.1899 32.57 67.9299 32.57C69.6977 32.6039 71.4572 32.8217 73.1799 33.22L72.0699 38.74C70.5383 38.3357 68.9636 38.1175 67.3799 38.09C60.6599 38.09 59.5599 42.88 59.5599 49.14V60.14H69.7699V65.7Z" fill="white" fill-opacity="0.8"/>
<path d="M84.4001 33.68H78.3301V103.25H84.4001V33.68Z" fill="white" fill-opacity="0.8"/>
<path d="M117.09 104.35C103.74 104.35 94.27 94.68 94.27 81.71C94.27 68.74 103.74 59.07 117.09 59.07C130.44 59.07 140 68.74 140 81.71C140 94.68 130.52 104.35 117.09 104.35ZM117.09 64.59C107.15 64.59 100.89 72.05 100.89 81.71C100.89 91.37 107.15 98.83 117.09 98.83C127.03 98.83 133.37 91.37 133.37 81.71C133.37 72.05 127.12 64.59 117.09 64.59Z" fill="white" fill-opacity="0.8"/>
<path d="M169.09 104.35C155.75 104.35 146.27 94.68 146.27 81.71C146.27 68.74 155.75 59.07 169.09 59.07C182.43 59.07 192.01 68.74 192.01 81.71C192.01 94.68 182.53 104.35 169.09 104.35ZM169.09 64.59C159.15 64.59 152.9 72.05 152.9 81.71C152.9 91.37 159.15 98.83 169.09 98.83C179.03 98.83 185.38 91.37 185.38 81.71C185.38 72.05 179.12 64.59 169.09 64.59Z" fill="white" fill-opacity="0.8"/>
<path d="M201.13 73.61C201.13 69.75 200.95 66.44 200.77 60.18H206.77V68.18H206.95C208.007 65.408 209.907 63.0377 212.383 61.4033C214.859 59.7689 217.786 58.9528 220.75 59.07C222.272 59.0445 223.79 59.233 225.26 59.63L224.06 65.63C222.933 65.2736 221.751 65.1179 220.57 65.17C211.37 65.17 207.23 73.17 207.23 78.97V103.24H201.13V73.61Z" fill="white" fill-opacity="0.8"/>
<path d="M35.41 119.21C34.5928 117.443 33.2774 115.953 31.6254 114.922C29.9733 113.892 28.0565 113.366 26.11 113.41C21.88 113.41 17.19 115.25 17.19 119.85C17.19 123.9 20.04 125.37 25.65 126.66L31.82 128.13C37.82 129.51 42.31 133.84 42.31 139.91C42.31 149.29 33.94 153.16 25.56 153.16C19.03 153.16 13.05 150.86 9 144.79L14.24 141.2C15.4007 143.168 17.0563 144.798 19.0422 145.928C21.0282 147.058 23.2752 147.648 25.56 147.64C30.56 147.64 35.68 145.43 35.68 140.46C35.68 136.14 32 134.66 27.49 133.56L21.63 132.18C18.63 131.44 10.58 129.05 10.58 120.86C10.58 111.94 18.4 107.86 26.5 107.86C32.5 107.86 38.1 109.97 40.86 115.59L35.41 119.21Z" fill="white" fill-opacity="0.8"/>
<path d="M81.8901 119.11C80.6972 117.352 79.0918 115.914 77.2143 114.92C75.3368 113.926 73.2443 113.408 71.1201 113.41C61.1201 113.22 54.92 120.68 54.92 130.52C54.92 140.36 61.0901 147.82 71.1201 147.64C73.2462 147.646 75.3411 147.129 77.2195 146.133C79.098 145.137 80.7021 143.693 81.8901 141.93L86.8901 145.71C84.9601 148.012 82.5551 149.87 79.84 151.156C77.125 152.442 74.1641 153.125 71.1601 153.16C57.0801 153.34 48.3401 143.5 48.3401 130.52C48.3401 117.54 57.0801 107.7 71.1601 107.89C74.1644 107.923 77.126 108.605 79.8414 109.891C82.5567 111.178 84.9614 113.036 86.8901 115.34L81.8901 119.11Z" fill="white" fill-opacity="0.8"/>
<path d="M114.19 153.16C100.85 153.16 91.3699 143.5 91.3699 130.52C91.3699 117.54 100.85 107.89 114.19 107.89C127.53 107.89 137.1 117.54 137.1 130.54C137.1 143.54 127.63 153.18 114.19 153.18V153.16ZM114.19 113.43C104.25 113.43 97.9999 120.88 97.9999 130.54C97.9999 140.2 104.25 147.66 114.19 147.66C124.13 147.66 130.48 140.21 130.48 130.54C130.48 120.87 124.22 113.43 114.19 113.43Z" fill="white" fill-opacity="0.8"/>
<path d="M147.51 122.43C147.51 118.56 147.33 115.25 147.14 108.99H153.14V116.99H153.33C155.07 112.39 159.59 107.88 167.13 107.88C168.652 107.851 170.17 108.037 171.64 108.43L170.44 114.43C169.313 114.074 168.131 113.918 166.95 113.97C157.74 113.97 153.6 121.97 153.6 127.77V152.06H147.53L147.51 122.43Z" fill="white" fill-opacity="0.8"/>
<path d="M180.01 132.18C180.74 140.83 187.28 147.64 195.83 147.64C198.57 147.654 201.27 146.979 203.682 145.678C206.093 144.376 208.138 142.489 209.63 140.19L214.32 144.05C212.188 146.936 209.396 149.269 206.177 150.854C202.959 152.439 199.407 153.229 195.82 153.16C183.03 153.16 173.56 143.5 173.56 130.52C173.56 117.54 183.03 107.89 195.27 107.89C208.34 107.98 215.88 117.64 215.88 129.42V132.18H180.01ZM209.27 127.18C209.27 118.99 204.02 113.38 195.27 113.38C187.36 113.38 180.18 120.09 180.18 127.18H209.27Z" fill="white" fill-opacity="0.8"/>
<path d="M229.021 163.499L221.759 170.761L229.347 178.348L236.609 171.086L229.021 163.499Z" fill="white" fill-opacity="0.8"/>
<path d="M91.7605 33.1469L91.3574 33.55L98.9942 41.1867L99.3972 40.7837L91.7605 33.1469Z" fill="white" fill-opacity="0.8"/>
<path d="M237.714 152.099L231.344 160.87L239.969 167.134L246.339 158.363L237.714 152.099Z" fill="white" fill-opacity="0.8"/>
<path d="M244.24 139.957L239.58 149.108L249.007 153.91L253.668 144.758L244.24 139.957Z" fill="white" fill-opacity="0.8"/>
<path d="M248.899 127.098L245.902 136.323L255.907 139.574L258.904 130.348L248.899 127.098Z" fill="white" fill-opacity="0.8"/>
<path d="M251.353 113.451L249.924 122.469L260.275 124.108L261.704 115.09L251.353 113.451Z" fill="white" fill-opacity="0.8"/>
<path d="M262.26 99.72H251.82V108.28H262.26V99.72Z" fill="white" fill-opacity="0.8"/>
<path d="M260.384 84.4561L250.122 86.0833L251.373 93.9747L261.635 92.3475L260.384 84.4561Z" fill="white" fill-opacity="0.8"/>
<path d="M256.204 69.6085L246.352 72.8099L248.644 79.8668L258.497 76.6653L256.204 69.6085Z" fill="white" fill-opacity="0.8"/>
<path d="M249.809 55.5725L240.595 60.2651L243.699 66.3602L252.913 61.6675L249.809 55.5725Z" fill="white" fill-opacity="0.8"/>
<path d="M241.315 42.7359L232.949 48.8121L236.633 53.8853L245 47.809L241.315 42.7359Z" fill="white" fill-opacity="0.8"/>
<path d="M91.4486 153.728L82.4009 160.318L84.755 163.55L93.8027 156.96L91.4486 153.728Z" fill="white" fill-opacity="0.8"/>
<path d="M97.8342 165.284L89.9331 173.179L93.1564 176.405L101.058 168.509L97.8342 165.284Z" fill="white" fill-opacity="0.8"/>
<path d="M230.965 31.2822L223.646 38.6008L227.677 42.6313L234.996 35.3127L230.965 31.2822Z" fill="white" fill-opacity="0.8"/>
<path d="M218.941 21.5488L212.859 29.9232L217.009 32.9378L223.092 24.5635L218.941 21.5488Z" fill="white" fill-opacity="0.8"/>
<path d="M107.967 174.379L101.406 183.406L105.555 186.422L112.117 177.395L107.967 174.379Z" fill="white" fill-opacity="0.8"/>
<path d="M205.64 13.8858L200.94 23.1183L205.004 25.1871L209.704 15.9546L205.64 13.8858Z" fill="white" fill-opacity="0.8"/>
<path d="M119.363 181.846L114.316 191.755L119.396 194.341L124.442 184.433L119.363 181.846Z" fill="white" fill-opacity="0.8"/>
<path d="M131.806 187.592L128.375 198.138L134.338 200.077L137.769 189.531L131.806 187.592Z" fill="white" fill-opacity="0.8"/>
<path d="M191.232 8.2424L188.023 18.1245L191.818 19.3568L195.027 9.47471L191.232 8.2424Z" fill="white" fill-opacity="0.8"/>
<path d="M144.962 191.3L143.231 202.224L149.997 203.296L151.727 192.372L144.962 191.3Z" fill="white" fill-opacity="0.8"/>
<path d="M176.171 4.92521L174.542 15.2372L177.92 15.7711L179.549 5.45903L176.171 4.92521Z" fill="white" fill-opacity="0.8"/>
<path d="M163.68 4H160.83V14.5H163.68V4Z" fill="white" fill-opacity="0.8"/>
<path d="M165.97 192.97H158.55V204H165.97V192.97Z" fill="white" fill-opacity="0.8"/>
<path d="M147.836 5.07732L145.357 5.46997L147.006 15.8802L149.485 15.4875L147.836 5.07732Z" fill="white" fill-opacity="0.8"/>
<path d="M180.085 191.388L172.194 192.638L173.907 203.453L181.798 202.203L180.085 191.388Z" fill="white" fill-opacity="0.8"/>
<path d="M132.304 8.65678L130.354 9.28992L133.622 19.3527L135.572 18.7195L132.304 8.65678Z" fill="white" fill-opacity="0.8"/>
<path d="M193.898 187.345L185.758 189.992L189.125 200.348L197.265 197.701L193.898 187.345Z" fill="white" fill-opacity="0.8"/>
<path d="M206.791 181.409L198.656 185.554L203.578 195.213L211.713 191.068L206.791 181.409Z" fill="white" fill-opacity="0.8"/>
<path d="M117.508 14.5748L116.189 15.2467L121.024 24.7359L122.343 24.064L117.508 14.5748Z" fill="white" fill-opacity="0.8"/>
<path d="M218.626 173.321L210.778 179.023L217.121 187.752L224.968 182.05L218.626 173.321Z" fill="white" fill-opacity="0.8"/>
<path d="M103.937 22.7916L103.014 23.4615L109.32 32.1434L110.242 31.4735L103.937 22.7916Z" fill="white" fill-opacity="0.8"/>
<path d="M221.69 141.24C222.769 141.248 223.822 141.576 224.716 142.182C225.609 142.788 226.302 143.645 226.709 144.645C227.115 145.645 227.215 146.743 226.998 147.801C226.78 148.858 226.254 149.827 225.486 150.585C224.718 151.344 223.742 151.857 222.682 152.061C221.622 152.265 220.525 152.151 219.531 151.732C218.536 151.313 217.688 150.608 217.093 149.707C216.498 148.806 216.184 147.749 216.19 146.67C216.182 145.949 216.319 145.233 216.593 144.566C216.868 143.899 217.274 143.294 217.787 142.787C218.3 142.28 218.91 141.882 219.581 141.616C220.252 141.35 220.969 141.222 221.69 141.24ZM221.62 142.33C220.504 142.392 219.454 142.881 218.689 143.696C217.924 144.512 217.502 145.59 217.511 146.708C217.52 147.826 217.959 148.898 218.737 149.701C219.515 150.504 220.573 150.976 221.69 151.02C222.806 150.966 223.859 150.485 224.63 149.676C225.401 148.867 225.832 147.793 225.832 146.675C225.832 145.557 225.401 144.483 224.63 143.674C223.859 142.865 222.806 142.384 221.69 142.33H221.62ZM220.81 149.49H219.63V144.09C220.288 143.957 220.958 143.89 221.63 143.89C222.277 143.829 222.926 143.98 223.48 144.32C223.646 144.463 223.779 144.642 223.869 144.842C223.959 145.043 224.004 145.26 224 145.48C223.985 145.786 223.868 146.079 223.669 146.312C223.471 146.545 223.2 146.706 222.9 146.77V146.84C223.41 147 223.71 147.44 223.9 148.17C223.941 148.632 224.073 149.08 224.29 149.49H222.96C222.754 149.084 222.612 148.649 222.54 148.2C222.44 147.6 222.12 147.34 221.44 147.34H220.85L220.81 149.49ZM220.81 146.44H221.39C222.07 146.44 222.62 146.21 222.62 145.65C222.62 145.09 222.26 144.82 221.49 144.82C221.261 144.812 221.032 144.835 220.81 144.89V146.44Z" fill="white" fill-opacity="0.8"/>
</g>
<defs>
<filter id="filter0_d_3135_23970" x="0" y="0" width="269" height="226" filterUnits="userSpaceOnUse" color-interpolation-filters="sRGB">
<feFlood flood-opacity="0" result="BackgroundImageFix"/>
<feColorMatrix in="SourceAlpha" type="matrix" values="0 0 0 0 0 0 0 0 0 0 0 0 0 0 0 0 0 0 127 0" result="hardAlpha"/>
<feOffset dx="-1" dy="4"/>
<feGaussianBlur stdDeviation="4"/>
<feColorMatrix type="matrix" values="0 0 0 0 0 0 0 0 0 0 0 0 0 0 0 0 0 0 0.16 0"/>
<feBlend mode="normal" in2="BackgroundImageFix" result="effect1_dropShadow_3135_23970"/>
<feBlend mode="normal" in="SourceGraphic" in2="effect1_dropShadow_3135_23970" result="shape"/>
</filter>
<clipPath id="clip0_3135_23970">
<rect width="253" height="210" fill="white" transform="translate(9 4)"/>
</clipPath>
</defs>
</svg>
