<svg width="785" height="314" viewBox="0 0 785 314" fill="none" xmlns="http://www.w3.org/2000/svg">
<path d="M59.1855 107.599L133.93 107.599C146.762 107.599 154.255 104.173 160.671 99.0402C165.562 92.9266 168.007 88.6471 168.619 80.0881C168.619 68.9663 166.785 64.1927 160.671 58.6905C154.255 53.5574 146.762 50.9908 133.93 50.9908L59.1855 50.9908V107.599ZM0 5.45393H137.224C148.63 5.45393 175.513 7.165 184.543 10.5871C193.81 13.7953 201.651 18.2868 208.067 24.0616C214.72 29.8363 219.71 36.5735 223.037 44.2732C226.601 51.759 228.383 59.8865 228.383 68.6556C228.383 82.1301 227.611 95.9267 221.196 105.765C215.018 115.604 203.627 127.144 189.37 132.277V132.919C196.261 134.63 201.964 137.303 206.478 140.939C210.993 144.361 214.676 148.532 217.528 153.451C220.379 158.157 222.399 163.397 223.587 169.171C225.013 174.946 224.7 174.526 225.176 180.301C225.413 183.937 225.651 188.215 225.888 193.134C226.126 198.053 226.482 203.079 226.958 208.212C227.671 213.346 228.621 218.265 229.809 222.97C231.235 227.462 233.255 231.312 235.868 234.52H173.141C170.052 227.248 166.886 218.526 166.173 208.474C164.951 198.692 164.542 195.05 163.117 185.853C161.216 173.876 158.29 166.131 152.112 160.57C148.444 157.119 143.553 153.451 128.584 152.229L59.1855 152.229V234.52L0 234.52V5.45393Z" fill="#0164DB"/>
<path d="M252.226 5.45393L446.678 5.45394V53.7996H312.79V98.4289H436.285V147.338H312.79V234.52L252.226 234.52V5.45393Z" fill="#0164DB"/>
<path d="M724.695 5.45393L768.848 5.45394L776.122 5.45394L784.817 5.45394V234.52L724.695 234.52V5.45393Z" fill="#0164DB"/>
<path d="M645.981 95.3721C641.702 79.4767 636.811 73.3631 632.531 68.4723C614.132 47.4444 560.575 40.6308 534.103 69.5349C519.919 82.7402 516.775 109.571 516.976 120.949C517.479 149.447 527.988 163.144 534.345 169.246C549.601 183.89 565.207 186.338 578.682 187.643C590.297 188.254 608.071 188.665 622.546 178.887C636.346 169.565 642.925 160.176 645.982 143.669H705.275C703.849 157.999 701.165 173.651 691.222 189.521C683.512 201.828 676.952 207.454 665.545 216.421C655.206 223.761 642.336 228.953 629.274 233.229L629.25 233.236C616.181 237.514 601.805 239.653 586.123 239.653C566.638 239.653 553.004 237.829 533.371 230.67C514.71 223.865 504.632 217.442 489.273 205.325C476.706 193.111 470.383 182.119 464.68 167.789C458.977 153.245 456.126 137.632 456.126 120.949C456.126 103.839 458.977 88.0117 464.68 73.4679C470.383 58.7101 478.581 45.8773 489.273 34.9694C499.966 24.0615 514.989 15.3729 530.435 9.17039C546.117 2.96787 566.638 0 586.123 0C600.142 0 613.33 1.81798 625.686 5.45393C638.28 9.0899 651.484 14.0613 661.265 20.1749C671.659 26.8998 681.138 34.9743 687.554 45.2406C696.113 57.4678 703.611 82.1115 705.275 95.3721H645.981Z" fill="#0164DB"/>
<rect y="253.934" width="784.816" height="59.18" fill="#0164DB"/>
</svg>
